<?xml version="1.0" encoding="iso-8859-1"?>
<!-- Generator: Adobe Illustrator 19.0.0, SVG Export Plug-In . SVG Version: 6.00 Build 0)  -->
<svg xmlns="http://www.w3.org/2000/svg" xmlns:xlink="http://www.w3.org/1999/xlink" version="1.1" id="Layer_1" x="0px" y="0px" viewBox="0 0 512 512" style="enable-background:new 0 0 512 512;" xml:space="preserve">
<circle style="fill:#49BBEE;" cx="255.996" cy="255.997" r="255.996"/>
<path style="fill:#009AE5;" d="M512,256.001c0-37.549-8.084-73.21-22.607-105.337l-58.94-58.94l-0.001-0.001  c-27.588-27.587-72.315-27.587-99.902,0l38.656,38.656l-7.848,7.848c-29.081-22.651-65.642-36.149-105.359-36.149  s-76.278,13.498-105.359,36.149l-7.848-7.848l38.656-38.657c-27.587-27.587-72.314-27.587-99.901,0s-27.587,72.314,0,99.901  l34.648-34.648l7.459,7.459C99.127,194.114,84.388,232.18,84.388,273.69c0,49.957,21.353,94.922,55.423,126.285l-24.727,42.828  l54.08,54.08c27.116,9.777,56.351,15.116,86.836,15.116C397.385,512.001,512,397.386,512,256.001z"/>
<path style="fill:#FF0335;" d="M255.999,102.08c-39.717,0-76.277,13.498-105.359,36.149l-22.173-22.173l-26.597,26.597  l21.785,21.785c-24.529,29.679-39.268,67.745-39.268,109.255c0,49.957,21.353,94.922,55.423,126.285l-24.727,42.828l34.212,19.752  l22.648-39.227c24.844,13.986,53.516,21.975,84.058,21.975c94.779,0,171.613-76.833,171.613-171.613S350.779,102.08,255.999,102.08z  "/>
<path style="fill:#C2001B;" d="M427.612,273.691c0-41.51-14.739-79.577-39.268-109.255l21.785-21.785l-26.598-26.597l-22.173,22.173  c-29.081-22.651-65.642-36.149-105.359-36.149c-0.001,0-0.002,0-0.003,0v343.224c0.001,0,0.002,0,0.003,0  c30.542,0,59.213-7.988,84.058-21.975l22.648,39.227l34.212-19.752l-24.727-42.828C406.259,368.614,427.612,323.649,427.612,273.691  z"/>
<circle style="fill:#FFFFFF;" cx="255.996" cy="273.687" r="131.603"/>
<path style="fill:#E1E1E3;" d="M255.999,142.089c-0.001,0-0.002,0-0.003,0v263.204c0.001,0,0.002,0,0.003,0  c72.682,0,131.602-58.92,131.602-131.602S328.682,142.089,255.999,142.089z"/>
<rect x="216.383" y="258.603" transform="matrix(0.7071 0.7071 -0.7071 0.7071 284.0189 -63.9893)" style="fill:#006EF5;" width="5.737" height="104.487"/>
<rect x="243.552" y="164.81" style="fill:#57555C;" width="24.896" height="108.877"/>
<g>
	<rect x="255.996" y="164.81" style="fill:#3C3B41;" width="12.452" height="108.877"/>
	<rect x="255.996" y="261.243" style="fill:#3C3B41;" width="84.544" height="24.896"/>
</g>
<circle style="fill:#FF0335;" cx="255.996" cy="273.687" r="22.879"/>
<path style="fill:#C2001B;" d="M255.999,250.813c-0.001,0-0.002,0-0.003,0v45.756c0.001,0,0.002,0,0.003,0  c12.636,0,22.879-10.243,22.879-22.879C278.878,261.057,268.635,250.813,255.999,250.813z"/>
<path style="fill:#57555C;" d="M81.548,91.724c-27.587,27.587-27.587,72.314,0,99.901l99.901-99.901  C153.862,64.136,109.135,64.136,81.548,91.724z"/>
<path style="fill:#3C3B41;" d="M430.452,91.724c27.587,27.587,27.587,72.314,0,99.901l-99.901-99.901  C358.138,64.136,402.865,64.136,430.452,91.724z"/>
<g>
</g>
<g>
</g>
<g>
</g>
<g>
</g>
<g>
</g>
<g>
</g>
<g>
</g>
<g>
</g>
<g>
</g>
<g>
</g>
<g>
</g>
<g>
</g>
<g>
</g>
<g>
</g>
<g>
</g>
</svg>
