<?xml version="1.0" encoding="iso-8859-1"?>
<!-- Generator: Adobe Illustrator 19.0.0, SVG Export Plug-In . SVG Version: 6.00 Build 0)  -->
<svg xmlns="http://www.w3.org/2000/svg" xmlns:xlink="http://www.w3.org/1999/xlink" version="1.1" id="Layer_1" x="0px" y="0px" viewBox="0 0 512.001 512.001" style="enable-background:new 0 0 512.001 512.001;" xml:space="preserve">
<circle style="fill:#3A4DE3;" cx="256.001" cy="255.996" r="255.996"/>
<path style="fill:#1C2EDE;" d="M511.88,263.693c-0.397-0.387-0.789-0.779-1.19-1.162L287.357,39.05  c-7.487-8.977-18.751-14.691-31.354-14.691c-22.54,0-40.812,18.272-40.812,40.812c0,1.483,0.084,2.947,0.238,4.389  c-54.241,17.196-93.552,67.94-93.552,127.873v0.002c-0.002,0.082-2.08,80.838-20.411,134.124  c-17.911,52.068-25.599,67.812-25.599,67.812l99.732,99.732c25.287,8.359,52.313,12.898,80.403,12.898  C394.814,512,507.81,401.518,511.88,263.693z"/>
<circle style="fill:#FFDB2D;" cx="256.001" cy="421.945" r="48.253"/>
<g>
	<path style="fill:#FEC000;" d="M256.004,373.693v96.509c26.65,0,48.254-21.604,48.254-48.254   C304.258,395.297,282.654,373.693,256.004,373.693z"/>
	<path style="fill:#FEC000;" d="M231.269,65.171c0-13.661,11.074-24.734,24.734-24.734c13.661,0,24.734,11.074,24.734,24.734   c0,1.614-0.166,3.189-0.462,4.718c5.334,0.924,10.565,2.148,15.676,3.653c0.563-2.702,0.863-5.501,0.863-8.37   c0-22.54-18.272-40.812-40.812-40.812c-22.54,0-40.812,18.271-40.812,40.811c0,2.869,0.299,5.667,0.863,8.37   c5.112-1.504,10.342-2.729,15.676-3.653C231.435,68.36,231.269,66.786,231.269,65.171z"/>
</g>
<path style="fill:#D9A600;" d="M256.004,24.359v16.078c13.661,0,24.734,11.074,24.734,24.734c0,1.614-0.166,3.189-0.462,4.718  c5.334,0.924,10.565,2.148,15.676,3.653c0.563-2.702,0.863-5.501,0.863-8.37C296.817,42.631,278.544,24.359,256.004,24.359z"/>
<path style="fill:#FFD400;" d="M410.541,331.558c-18.33-53.286-20.409-134.042-20.411-134.124v-0.002  c0-74.076-60.05-134.126-134.126-134.126s-134.126,60.05-134.126,134.126v0.002c-0.002,0.083-2.08,80.838-20.411,134.124  c-17.911,52.068-25.599,67.812-25.599,67.812s89.746,39.655,180.135,39.655s180.136-39.655,180.136-39.655  S428.452,383.626,410.541,331.558z"/>
<path style="fill:#ECB300;" d="M410.541,331.558c-18.33-53.286-20.409-134.042-20.411-134.124v-0.002  c0-74.076-60.05-134.126-134.126-134.126v375.719c90.39,0,180.135-39.655,180.135-39.655S428.452,383.626,410.541,331.558z"/>
<path style="fill:#C06200;" d="M97.661,342.517c-15.195,43.331-21.792,56.853-21.792,56.853s89.746,39.655,180.135,39.655  s180.136-39.655,180.136-39.655s-6.597-13.522-21.792-56.853c-43.679,23.929-98.636,38.193-158.344,38.193  C196.297,380.709,141.34,366.447,97.661,342.517z"/>
<circle style="fill:#FFDB2D;" cx="322.225" cy="147.14" r="23.849"/>
<path style="fill:#9A4C00;" d="M414.347,342.517c-43.679,23.929-98.635,38.193-158.344,38.193v58.316  c90.39,0,180.135-39.655,180.135-39.655S429.542,385.848,414.347,342.517z"/>
<g>
</g>
<g>
</g>
<g>
</g>
<g>
</g>
<g>
</g>
<g>
</g>
<g>
</g>
<g>
</g>
<g>
</g>
<g>
</g>
<g>
</g>
<g>
</g>
<g>
</g>
<g>
</g>
<g>
</g>
</svg>
