<?xml version="1.0" encoding="iso-8859-1"?>
<!-- Generator: Adobe Illustrator 19.0.0, SVG Export Plug-In . SVG Version: 6.00 Build 0)  -->
<svg xmlns="http://www.w3.org/2000/svg" xmlns:xlink="http://www.w3.org/1999/xlink" version="1.1" id="Layer_1" x="0px" y="0px" viewBox="0 0 512 512" style="enable-background:new 0 0 512 512;" xml:space="preserve">
<circle style="fill:#FFB551;" cx="255.996" cy="255.997" r="255.996"/>
<path style="fill:#FF8900;" d="M512,256.001c0-2.88-0.065-5.744-0.159-8.6L347.253,69.506l-0.003,0.002  c-13.408-16.388-33.786-26.851-56.612-26.851c-40.31,0-72.996,32.62-73.11,72.903c-5.858-27.329-30.141-47.823-59.22-47.823  c-33.455,0-60.576,27.121-60.576,60.576s27.121,60.576,60.576,60.576c1.111,0,2.212-0.036,3.307-0.094l-0.038,0.094h-17.026H78.191  c-10.119,0-18.397,8.279-18.397,18.397v0.691v175.158v0.69c0,4.723,1.819,9.031,4.772,12.298l-0.008,0.021l0.296,0.296  c0.235,0.248,0.475,0.489,0.724,0.724l97.401,97.402c28.835,11.251,60.205,17.435,93.023,17.435  C397.385,512.001,512,397.385,512,256.001z"/>
<polygon style="fill:#00459F;" points="370.248,241.165 370.248,349.949 455.668,400.8 455.668,190.312 "/>
<path style="fill:#004DB1;" d="M356.686,188.889H77.285c-9.62,0-17.492,7.871-17.492,17.492v178.35  c0,9.62,7.871,17.492,17.492,17.492h279.402c9.62,0,17.492-7.871,17.492-17.492v-178.35  C374.178,196.76,366.307,188.889,356.686,188.889z"/>
<path style="fill:#003D8D;" d="M356.686,188.889H216.986v213.334h139.701c9.62,0,17.492-7.871,17.492-17.492V206.382  C374.178,196.761,366.307,188.889,356.686,188.889z"/>
<rect x="59.799" y="207.974" style="fill:#006EF5;" width="314.384" height="175.154"/>
<circle style="fill:#004DB1;" cx="158.174" cy="128.312" r="60.576"/>
<circle style="fill:#003D8D;" cx="290.509" cy="115.774" r="73.117"/>
<circle style="fill:#E1E1E3;" cx="290.509" cy="115.774" r="46.267"/>
<circle style="fill:#FFFFFF;" cx="158.174" cy="128.312" r="38.332"/>
<rect x="216.98" y="207.974" style="fill:#005ED3;" width="157.192" height="175.154"/>
<polygon style="fill:#FFFFFF;" points="279.696,295.556 174.798,356.12 174.798,295.556 174.798,234.993 "/>
<polygon style="fill:#E1E1E3;" points="279.696,295.556 216.986,259.35 216.986,331.762 "/>
<g>
</g>
<g>
</g>
<g>
</g>
<g>
</g>
<g>
</g>
<g>
</g>
<g>
</g>
<g>
</g>
<g>
</g>
<g>
</g>
<g>
</g>
<g>
</g>
<g>
</g>
<g>
</g>
<g>
</g>
</svg>
