<?xml version="1.0" encoding="iso-8859-1"?>
<!-- Generator: Adobe Illustrator 19.0.0, SVG Export Plug-In . SVG Version: 6.00 Build 0)  -->
<svg xmlns="http://www.w3.org/2000/svg" xmlns:xlink="http://www.w3.org/1999/xlink" version="1.1" id="Layer_1" x="0px" y="0px" viewBox="0 0 512 512" style="enable-background:new 0 0 512 512;" xml:space="preserve">
<circle style="fill:#0082D1;" cx="255.996" cy="256" r="255.996"/>
<path style="fill:#004DB1;" d="M512,256.003c0-17.141-1.699-33.886-4.912-50.083l-96.993-96.993  c-31.645-33.752-76.631-54.847-126.548-54.847v56.019l-27.546-27.546c-95.794,0-173.451,77.657-173.451,173.451  c0,50.823,21.86,96.54,56.69,128.265l127.496,127.495C403.139,506.135,512,393.791,512,256.003z"/>
<path style="fill:#FFFFFF;" d="M255.999,82.554c-95.794,0-173.451,77.657-173.451,173.451s77.657,173.451,173.451,173.451  S429.45,351.798,429.45,256.004H255.999L255.999,82.554L255.999,82.554z"/>
<path style="fill:#FF0335;" d="M283.547,54.081v173.451h173.451C456.997,131.736,379.341,54.081,283.547,54.081z"/>
<path style="fill:#E1E1E3;" d="M255.999,256.003V82.553c-0.31,0-0.618,0.01-0.927,0.011v346.878  c0.309,0.001,0.616,0.012,0.927,0.012c95.794,0,173.451-77.657,173.451-173.451L255.999,256.003L255.999,256.003z"/>
<g>
</g>
<g>
</g>
<g>
</g>
<g>
</g>
<g>
</g>
<g>
</g>
<g>
</g>
<g>
</g>
<g>
</g>
<g>
</g>
<g>
</g>
<g>
</g>
<g>
</g>
<g>
</g>
<g>
</g>
</svg>
