<?xml version="1.0" encoding="iso-8859-1"?>
<!-- Generator: Adobe Illustrator 19.0.0, SVG Export Plug-In . SVG Version: 6.00 Build 0)  -->
<svg xmlns="http://www.w3.org/2000/svg" xmlns:xlink="http://www.w3.org/1999/xlink" version="1.1" id="Layer_1" x="0px" y="0px" viewBox="0 0 512 512" style="enable-background:new 0 0 512 512;" xml:space="preserve">
<circle style="fill:#00A6FF;" cx="255.996" cy="255.996" r="255.996"/>
<path style="fill:#006EF5;" d="M512,255.999c0-8.791-0.445-17.478-1.31-26.041L349.102,68.371  c-4.852-7.78-13.486-12.989-23.281-12.989l0,0c-15.082,0-27.421,12.339-27.421,27.421v74.346L209.462,68.37  c-4.852-7.78-13.486-12.989-23.281-12.989l0,0c-15.082,0-27.421,12.339-27.421,27.421v122.246H121.4v99.736  c0,24.052,10.864,45.678,27.911,60.255c0,0,88.691,88.721,88.791,88.837v57.489l0,0c5.915,0.409,11.88,0.632,17.899,0.632  C397.385,512,512,397.385,512,255.999z"/>
<path style="fill:#FF0335;" d="M238.101,426.316v85.051c5.915,0.409,11.88,0.632,17.899,0.632c6.019,0,11.985-0.224,17.899-0.632  v-85.051H238.101z"/>
<path style="fill:#C2001B;" d="M256.001,426.316v85.051c2.957,0.409,5.94,0.632,8.949,0.632s5.992-0.224,8.949-0.632v-85.051  H256.001z"/>
<path style="fill:#FFFFFF;" d="M213.302,408.991c0,13.838,11.322,25.161,25.161,25.161h35.074c13.838,0,25.161-11.322,25.161-25.161  v-36.274h-85.395V408.991z"/>
<path style="fill:#E1E1E3;" d="M256.001,372.717v61.436h17.537c13.838,0,25.161-11.322,25.161-25.161v-36.274h-42.698V372.717z"/>
<path style="fill:#FFFFFF;" d="M158.758,211.559V82.804c0-15.082,12.339-27.421,27.421-27.421l0,0  c15.082,0,27.421,12.339,27.421,27.421V211.56h-54.842V211.559z"/>
<path style="fill:#E1E1E3;" d="M298.399,211.559V82.804c0-15.082,12.339-27.421,27.421-27.421l0,0  c15.082,0,27.421,12.339,27.421,27.421V211.56h-54.842V211.559z"/>
<path style="fill:#FF0335;" d="M121.399,304.785c0,43.625,35.693,79.318,79.318,79.318h110.567  c43.625,0,79.318-35.693,79.318-79.317V205.05H121.399V304.785z"/>
<path style="fill:#C2001B;" d="M256.001,205.05v179.053h55.284c43.625,0,79.318-35.693,79.318-79.318v-99.736H256.001V205.05z"/>
<g>
	<path style="fill:#FF3D62;" d="M310.147,282.735H201.846c-5.651,0-10.274-4.624-10.274-10.274l0,0   c0-5.651,4.624-10.274,10.274-10.274h108.301c5.651,0,10.274,4.624,10.274,10.274l0,0   C320.422,278.111,315.798,282.735,310.147,282.735z"/>
	<path style="fill:#FF3D62;" d="M310.147,326.968H201.846c-5.651,0-10.274-4.624-10.274-10.274l0,0   c0-5.651,4.624-10.274,10.274-10.274h108.301c5.651,0,10.274,4.624,10.274,10.274l0,0   C320.422,322.344,315.798,326.968,310.147,326.968z"/>
</g>
<g>
	<path style="fill:#FF0335;" d="M310.147,282.734c5.651,0,10.274-4.624,10.274-10.274s-4.624-10.274-10.274-10.274h-54.147v20.549   H310.147z"/>
	<path style="fill:#FF0335;" d="M310.147,306.418h-54.147v20.55h54.147c5.651,0,10.274-4.624,10.274-10.275   C320.422,311.042,315.798,306.418,310.147,306.418z"/>
</g>
<g>
</g>
<g>
</g>
<g>
</g>
<g>
</g>
<g>
</g>
<g>
</g>
<g>
</g>
<g>
</g>
<g>
</g>
<g>
</g>
<g>
</g>
<g>
</g>
<g>
</g>
<g>
</g>
<g>
</g>
</svg>
