<?xml version="1.0" encoding="iso-8859-1"?>
<!-- Generator: Adobe Illustrator 19.0.0, SVG Export Plug-In . SVG Version: 6.00 Build 0)  -->
<svg xmlns="http://www.w3.org/2000/svg" xmlns:xlink="http://www.w3.org/1999/xlink" version="1.1" id="Layer_1" x="0px" y="0px" viewBox="0 0 512 512" style="enable-background:new 0 0 512 512;" xml:space="preserve">
<circle style="fill:#FF3D62;" cx="255.996" cy="255.997" r="255.996"/>
<path style="fill:#C2001B;" d="M512,256.001c0-28.709-4.726-56.314-13.442-82.081L395.301,70.663  c-36.137-13.915-78.659-6.305-107.805,22.841c-29.121,29.121-36.721,71.587-22.856,107.703L98.87,366.979  c-15.958,15.96-15.958,42.074,0,58.033l0,0l73.231,72.906c26.286,9.116,54.512,14.082,83.9,14.082  C397.385,512.001,512,397.386,512,256.001z"/>
<path style="fill:#FFFFFF;" d="M274.681,191.169L98.87,366.98c-15.958,15.96-15.958,42.074,0,58.033l0,0  c15.96,15.96,42.073,15.96,58.033,0l175.811-175.811L274.681,191.169z M142.551,393.386c-3.315,3.314-8.739,3.315-12.054,0l0,0  c-3.315-3.314-3.314-8.739,0-12.054l15.268-15.268c3.315-3.315,8.739-3.315,12.054,0l0,0c3.314,3.314,3.315,8.739,0,12.054  L142.551,393.386z"/>
<path style="fill:#E1E1E3;" d="M303.697,220.185L157.819,366.063c3.315,3.314,3.315,8.739,0,12.054l-15.268,15.269  c-3.315,3.314-8.739,3.315-12.054,0l-31.627,31.627c15.96,15.96,42.073,15.96,58.033,0l175.811-175.811L303.697,220.185z"/>
<path style="fill:#C8C6CC;" d="M288.479,204.966L114.693,378.753c-8.371,8.371-8.371,22.067,0,30.437l0,0  c8.371,8.371,22.067,8.371,30.437,0l173.786-173.786L288.479,204.966z M142.551,393.386c-3.315,3.314-8.739,3.315-12.054,0l0,0  c-3.315-3.314-3.314-8.739,0-12.054l15.268-15.268c3.315-3.315,8.739-3.315,12.054,0l0,0c3.314,3.314,3.315,8.739,0,12.054  L142.551,393.386z"/>
<path style="fill:#AEADB3;" d="M303.697,220.185L157.819,366.063c3.315,3.314,3.315,8.739,0,12.054l-15.268,15.269  c-3.315,3.314-8.739,3.315-12.054,0l-15.805,15.804c8.371,8.371,22.067,8.371,30.437,0l173.786-173.786L303.697,220.185z"/>
<path style="fill:#FFFFFF;" d="M453.219,128.581L400.09,181.71h-33.927l-23.991-23.989v-33.927l53.129-53.129  c-36.137-13.915-78.659-6.305-107.805,22.841c-39.456,39.456-39.456,103.426,0,142.882s103.426,39.456,142.882,0  C459.524,207.24,467.134,164.718,453.219,128.581z"/>
<path style="fill:#E1E1E3;" d="M430.378,236.386c29.146-29.146,36.756-71.667,22.841-107.805L400.09,181.71h-33.927l-11.995-11.995  l-66.671,66.671C326.952,275.842,390.922,275.842,430.378,236.386z"/>
<g>
</g>
<g>
</g>
<g>
</g>
<g>
</g>
<g>
</g>
<g>
</g>
<g>
</g>
<g>
</g>
<g>
</g>
<g>
</g>
<g>
</g>
<g>
</g>
<g>
</g>
<g>
</g>
<g>
</g>
</svg>
