<?xml version="1.0" encoding="iso-8859-1"?>
<!-- Generator: Adobe Illustrator 19.0.0, SVG Export Plug-In . SVG Version: 6.00 Build 0)  -->
<svg xmlns="http://www.w3.org/2000/svg" xmlns:xlink="http://www.w3.org/1999/xlink" version="1.1" id="Layer_1" x="0px" y="0px" viewBox="0 0 512 512" style="enable-background:new 0 0 512 512;" xml:space="preserve">
<circle style="fill:#FFB551;" cx="255.996" cy="255.996" r="255.996"/>
<path style="fill:#FF8900;" d="M512,255.999c0-32.329-6.009-63.25-16.944-91.728l-44.98-44.981  c-4.542-6.411-12.011-10.62-20.42-10.62H82.344c-13.76,0-25.019,11.258-25.019,25.019v229.579c0,8.409,4.209,15.878,10.62,20.42  L186.78,502.522c22.018,6.17,45.232,9.478,69.219,9.478C397.385,512,512,397.385,512,255.999z"/>
<rect x="203.825" y="381.947" style="fill:#3C3B41;" width="104.352" height="43.195"/>
<rect x="255.996" y="381.947" style="fill:#2A2A2C;" width="52.178" height="43.195"/>
<path style="fill:#57555C;" d="M429.656,108.671H82.344c-13.76,0-25.019,11.259-25.019,25.019v229.579  c0,13.76,11.259,25.019,25.019,25.019h347.312c13.76,0,25.019-11.259,25.019-25.019v-229.58  C454.674,119.929,443.416,108.671,429.656,108.671z"/>
<g>
	<path style="fill:#3C3B41;" d="M429.656,108.671H256.001v279.615h173.655c13.76,0,25.019-11.259,25.019-25.019V133.689   C454.674,119.929,443.416,108.671,429.656,108.671z"/>
	<rect x="74.751" y="127.476" style="fill:#3C3B41;" width="362.491" height="241.995"/>
</g>
<rect x="255.996" y="127.476" style="fill:#2A2A2C;" width="181.245" height="241.995"/>
<rect x="82.013" y="134.738" style="fill:#00A6FF;" width="347.977" height="227.481"/>
<rect x="255.996" y="134.738" style="fill:#0088FF;" width="173.994" height="227.481"/>
<path style="fill:#57555C;" d="M342.995,434.411c0-7.588-6.208-13.796-13.796-13.796H182.8c-7.588,0-13.796,6.208-13.796,13.796  v12.106h173.991V434.411z"/>
<path style="fill:#3C3B41;" d="M342.995,434.411c0-7.588-6.208-13.796-13.796-13.796h-73.2v25.902h86.995v-12.106H342.995z"/>
<g>
</g>
<g>
</g>
<g>
</g>
<g>
</g>
<g>
</g>
<g>
</g>
<g>
</g>
<g>
</g>
<g>
</g>
<g>
</g>
<g>
</g>
<g>
</g>
<g>
</g>
<g>
</g>
<g>
</g>
</svg>
