<?xml version="1.0" encoding="iso-8859-1"?>
<!-- Generator: Adobe Illustrator 19.0.0, SVG Export Plug-In . SVG Version: 6.00 Build 0)  -->
<svg xmlns="http://www.w3.org/2000/svg" xmlns:xlink="http://www.w3.org/1999/xlink" version="1.1" id="Layer_1" x="0px" y="0px" viewBox="0 0 512 512" style="enable-background:new 0 0 512 512;" xml:space="preserve">
<circle style="fill:#7FC8F1;" cx="255.996" cy="255.996" r="255.996"/>
<path style="fill:#009AE5;" d="M512,255.999c0-19.263-2.143-38.025-6.176-56.073l-74.188-74.188H213.302l-30.836-30.836H77.487  v318.734l77.761,77.761C186.172,504.652,220.227,512,256.001,512C397.385,512,512,397.385,512,255.999z"/>
<polygon style="fill:#FF0335;" points="182.467,94.904 213.302,125.739 431.636,125.739 431.636,413.638 77.487,413.638   77.487,94.904 "/>
<rect x="254.565" y="125.741" style="fill:#C2001B;" width="177.076" height="287.897"/>
<rect x="204.588" y="137.235" style="fill:#AEADB3;" width="209.624" height="216.709"/>
<rect x="94.907" y="109.107" style="fill:#FFFFFF;" width="209.624" height="220.47"/>
<rect x="254.565" y="109.107" style="fill:#E1E1E3;" width="49.968" height="220.47"/>
<polygon style="fill:#FF3D62;" points="254.562,160.232 223.725,191.068 77.487,191.068 77.487,413.638 431.636,413.638   431.636,160.232 "/>
<rect x="254.565" y="160.233" style="fill:#FF0335;" width="177.076" height="253.405"/>
<g>
	<polygon style="fill:#FFFFFF;" points="325.839,317.135 325.839,347.385 183.284,347.385 183.284,317.135 157.355,317.135    157.355,347.385 157.355,373.314 183.284,373.314 325.839,373.314 351.767,373.314 351.767,347.385 351.767,317.135  "/>
	<polygon style="fill:#FFFFFF;" points="228.91,270.544 228.91,335.298 280.214,335.298 280.214,270.544 302.704,270.544    254.562,219.339 206.42,270.544  "/>
</g>
<g>
	<polygon style="fill:#C8C6CC;" points="325.839,317.135 325.839,347.385 254.562,347.385 254.562,373.314 325.839,373.314    351.767,373.314 351.767,347.385 351.767,317.135  "/>
	<polygon style="fill:#C8C6CC;" points="254.562,219.339 302.704,270.544 280.214,270.544 280.214,335.298 254.562,335.298  "/>
</g>
<g>
</g>
<g>
</g>
<g>
</g>
<g>
</g>
<g>
</g>
<g>
</g>
<g>
</g>
<g>
</g>
<g>
</g>
<g>
</g>
<g>
</g>
<g>
</g>
<g>
</g>
<g>
</g>
<g>
</g>
</svg>
